<svg width="80" height="80" viewBox="0 0 80 80" fill="none" xmlns="http://www.w3.org/2000/svg">
<rect width="80" height="80" rx="8" fill="white"/>
<path d="M19.5918 54.1029C19.1152 56.9625 17.2088 60.2987 17.2088 67.4476H11.4897C10.0599 58.8689 10.8224 59.2502 10.0599 53.1498C9.10671 45.5242 10.5365 43.6179 11.0131 42.1881C11.4897 40.7583 12.4429 37.4221 12.4429 36.469C12.4429 35.5158 12.9195 33.1328 13.3961 32.1796C13.8727 31.2264 14.3492 29.32 14.3492 24.5541C14.3492 19.7881 18.6386 18.3584 21.4982 17.4052C23.7858 16.6426 24.3578 15.9754 25.7876 14.5456C27.2173 13.1158 31.5067 11.686 31.5067 11.686H48.1875C48.1875 11.686 52.9534 14.5456 54.8598 15.4988C56.7662 16.452 58.7679 16.9286 59.6257 17.4052C63.9151 19.7881 65.3449 23.1243 65.3449 26.4605C65.3449 28.3668 65.8215 30.2732 66.2981 32.1796C66.7746 34.086 66.7746 35.9924 67.2512 38.3753C67.6325 40.2817 68.3633 41.7115 68.681 42.1881C70.2061 45.6196 69.6342 48.3838 69.6342 49.337C69.6342 52.033 68.681 62.2051 67.7278 67.4476H62.4853V63.6348C62.4853 57.9157 61.0555 56.9625 60.5789 56.0093C60.1023 55.0561 59.1491 52.6732 59.6257 50.2902C60.1023 47.9072 59.6257 47.4306 59.6257 45.5242C59.6257 43.6179 60.1023 43.6179 58.6725 41.7115C57.5287 40.1864 56.925 37.8987 56.7662 36.9455C56.2896 40.2817 55.813 40.7583 54.8598 44.0945C53.9066 47.4306 54.3832 50.2902 55.3364 52.1966C56.2896 54.1029 55.813 55.5327 54.8598 57.9157C54.0972 59.8221 53.9066 61.2519 53.9066 61.7285H25.7876L24.3577 57.4391C23.4045 53.1498 24.6387 52.4174 24.8343 51.2434L24.8343 51.2433C25.3109 48.3838 25.3109 48.3838 25.3109 46.954C25.3109 45.5242 24.8343 43.1413 23.8811 41.7115C23.1186 40.5677 22.9279 38.0576 22.9279 36.9455C22.4514 39.8051 20.545 42.6647 20.0684 43.6179C19.5918 44.5711 19.5918 48.3838 19.5918 48.8604C19.5918 50.7668 20.0684 51.2434 19.5918 54.1029Z" fill="#B6B2ED"/>
<path d="M24.3578 63.1582L23.4045 67.4475H56.2896L54.8598 63.1582L54.8598 60.7752C54.8598 59.6784 54.2332 58.8688 53.43 58.8688H25.7875C24.3577 58.8688 24.3577 60.2986 24.3578 60.7752V63.1582Z" fill="#22007C"/>
<path d="M39.9076 29.472C39.9076 33.46 39.5753 34.4271 37.6921 34.7893C25.7283 37.09 26.2822 38.1126 22.405 32.6846" stroke="#707EFF" stroke-width="1.5" stroke-linecap="round"/>
<path d="M39.9076 29.472C39.9076 33.46 40.3606 34.379 42.2339 34.7893C53.8654 37.3371 53.3115 37.4479 56.6348 33.1277" stroke="#707EFF" stroke-width="1.5" stroke-linecap="round"/>
<path d="M39.6861 37.3372C39.6861 39.3311 39.3633 40.9136 37.5813 41.4359C31.1563 43.3191 31.821 43.6514 29.6055 41.7682" stroke="#707EFF" stroke-width="1.5" stroke-linecap="round"/>
<path d="M39.6861 44.5376C39.6861 46.5316 39.0458 47.3921 37.249 47.8609C34.3688 48.6122 33.2611 49.4117 32.1533 47.7501" stroke="#707EFF" stroke-width="1.5" stroke-linecap="round"/>
<path d="M39.686 50.1871C39.686 52.2919 39.3537 52.4027 37.3597 53.1781C35.172 54.0289 34.9226 53.9535 34.1472 52.9565" stroke="#707EFF" stroke-width="1.5" stroke-linecap="round"/>
<path d="M39.6861 50.1871C39.6861 52.2919 40.1292 52.5134 42.1232 53.2889C44.2279 54.1074 44.4495 53.732 45.1141 53.0673" stroke="#707EFF" stroke-width="1.5" stroke-linecap="round"/>
<path d="M39.686 44.5376C39.686 46.5316 40.6586 47.5029 42.4554 47.9717C45.3356 48.723 46.111 49.301 47.108 47.8609" stroke="#707EFF" stroke-width="1.5" stroke-linecap="round"/>
<path d="M39.686 37.3372C39.686 39.3311 40.4519 41.1351 42.2339 41.6574C48.5481 43.5081 48.105 43.3191 49.6559 41.9898" stroke="#707EFF" stroke-width="1.5" stroke-linecap="round"/>
</svg>
