<svg width="36" height="36" viewBox="0 0 36 36" fill="none" xmlns="http://www.w3.org/2000/svg">
<rect width="36" height="36" rx="18" fill="url(#paint0_linear_2533_2159)"/>
<path fill-rule="evenodd" clip-rule="evenodd" d="M18 8C17.4477 8 17 8.44772 17 9V17H9C8.44772 17 8 17.4477 8 18C8 18.5523 8.44772 19 9 19H17V27C17 27.5523 17.4477 28 18 28C18.5523 28 19 27.5523 19 27V19H27C27.5523 19 28 18.5523 28 18C28 17.4477 27.5523 17 27 17H19V9C19 8.44772 18.5523 8 18 8Z" fill="white"/>
<defs>
<linearGradient id="paint0_linear_2533_2159" x1="8.4375" y1="2.8125" x2="27.5625" y2="32.625" gradientUnits="userSpaceOnUse">
<stop offset="0.160151" stop-color="#7C70FF"/>
<stop offset="1" stop-color="#22007C"/>
</linearGradient>
</defs>
</svg>
