<svg width="80" height="80" viewBox="0 0 80 80" fill="none" xmlns="http://www.w3.org/2000/svg">
<rect width="80" height="80" rx="8" fill="white"/>
<path d="M13.5251 46.6032V36.2861C13.5252 30.2467 23.7165 30.8758 32.9014 42.8286C37.9341 43.2313 44.2251 43.3319 48.2513 50.1262C48.6539 48.3144 53.5876 38.9282 54.9198 33.2664C56.4296 26.8496 55.5489 26.7238 54.9198 23.9557C50.8935 23.3266 48.503 22.0684 46.9931 21.3135C40.7022 24.3332 40.7022 20.4328 39.5698 15.9033C38.4374 11.3738 43.9735 11.1222 46.9931 10.1156C50.0128 9.10906 50.5161 10.1156 51.5226 10.6189C52.5292 11.1222 53.2841 11.7513 57.6878 14.5193C62.0915 17.2873 63.7271 20.4328 63.8529 23.7041C63.9536 26.3212 64.5659 31.1694 64.8595 33.2664C66.3693 40.1865 66.0223 54.1873 63.8529 62.2049C63.8801 69.0406 60.4819 70.5767 48.3771 69.2507C43.9735 70.2573 13.5252 69.2507 13.5251 46.6032Z" fill="#707EFF"/>
<mask id="mask0_494_6926" style="mask-type:alpha" maskUnits="userSpaceOnUse" x="13" y="9" width="53" height="61">
<path d="M13.5251 46.6032V36.2861C13.5252 30.2467 23.7165 30.8758 32.9014 42.8286C37.9341 43.2313 44.2251 43.3319 48.2513 50.1262C48.6539 48.3144 53.5876 38.9282 54.9198 33.2664C56.4296 26.8496 55.5489 26.7238 54.9198 23.9557C50.8935 23.3266 48.503 22.0684 46.9931 21.3135C40.7022 24.3332 40.7022 20.4328 39.5698 15.9033C38.4374 11.3738 43.9735 11.1222 46.9931 10.1156C50.0128 9.10906 50.5161 10.1156 51.5226 10.6189C52.5292 11.1222 53.2841 11.7513 57.6878 14.5193C62.0915 17.2873 63.7271 20.4328 63.8529 23.7041C63.9536 26.3212 64.5659 31.1694 64.8595 33.2664C66.3693 40.1865 66.0223 54.1873 63.8529 62.2048C63.8801 69.0406 60.4819 70.5767 48.3771 69.2507C43.9735 70.2573 13.5252 69.2507 13.5251 46.6032Z" fill="#707EFF"/>
</mask>
<g mask="url(#mask0_494_6926)">
<path d="M47 54C47.2013 52.8928 48.0417 50.5874 48.2514 50.1261L51.5227 33.0147L13.1478 31.8823V35.4052C17.174 28.3594 26.6105 39.9347 29.1269 45.0933C36 42.5 43.5 43.5 47 54Z" fill="#B6B2ED"/>
<path d="M53.9132 25.7172C54.3326 25.4236 55.0975 24.6666 54.9198 23.9557C54.7939 23.4525 54.3998 22.8556 53.6616 22.5717C50.3903 21.3135 49.5095 19.9295 49.6354 18.5455C49.5095 19.9295 47.6649 21.0082 46.9931 21.3135L46.4899 22.8233L53.9132 25.7172Z" fill="#22007C"/>
</g>
</svg>
