<svg width="80" height="80" viewBox="0 0 80 80" fill="none" xmlns="http://www.w3.org/2000/svg">
<rect width="80" height="80" rx="8" fill="white"/>
<path d="M31.5633 68.4C32.4964 67.2 37.8286 59.3333 39.6948 56.4L24.0984 32.9333C15.567 39.0666 18.0884 49.6768 22.3654 53.6C21.6989 55.7333 16.5001 66.9333 15.7003 68.1333C14.9005 69.3333 14.9005 70 16.6334 70H29.2972C30.6302 70 30.6302 69.6 31.5633 68.4Z" fill="#B6B2ED"/>
<path d="M33.8809 65.1558C34.8141 63.8225 37.8753 59.2918 39.6946 56.4L24.0982 32.9333C15.5668 39.0666 18.0882 49.6768 22.3653 53.6C21.4323 55.6 19.42 60.508 18.7535 61.8413C18.1086 63.1313 18.8822 64.0092 20.3682 64.9008C22.6628 66.2776 26.7421 66.9405 29.8016 66.6005C31.1265 66.4533 33.0093 66.4012 33.8809 65.1558Z" fill="#22007C"/>
<path d="M49.959 11.3333C49.5591 10.1333 49.4258 10 48.226 10H35.9623C33.9361 10 33.7638 11.1453 33.8295 12.4C34.2757 20.9294 29.5398 25.5423 27.5909 27.4405L27.5641 27.4667C16.4171 38.3252 24.7649 52.6667 34.6293 53.3333C37.1621 56.4 47.1596 68 48.226 68.9333C49.2925 69.8667 49.2925 70 51.292 70H63.2892C65.1021 70 65.1472 69.22 64.2223 67.7333C63.2405 66.1551 55.316 49.0415 50.0923 40.9333C48.0699 37.7942 48.5423 36.2667 49.5591 34.2667C53.5581 26.4 50.3589 12.5333 49.959 11.3333Z" fill="#B6B2ED"/>
<path d="M49.5591 34.2667C51.9992 29.4667 51.558 23.8629 51.558 23.0028C51.558 21.898 45.8639 20.3683 41.1047 20.3683C36.3455 20.3683 32.606 20.6232 31.8413 21.898C31.3614 22.698 29.4959 25.5848 27.5641 27.4667C16.4171 38.3252 24.7649 52.6667 34.6293 53.3333C37.0287 56.5333 41.7014 61.6246 42.6345 62.6912C43.5676 63.7579 46.3001 63.8113 47.8186 63.6261C51.303 63.2011 55.1099 62.2046 57.422 59.1218C58.6968 57.4221 58.4418 56.2323 57.762 54.7026C57.0071 53.004 55.2463 48.9333 50.0923 40.9333C48.0699 37.7942 48.5423 36.2667 49.5591 34.2667Z" fill="#707EFF"/>
</svg>
