<svg width="80" height="80" viewBox="0 0 80 80" fill="none" xmlns="http://www.w3.org/2000/svg">
<rect width="80" height="80" rx="8" fill="white"/>
<path d="M38.2632 65.4395C33.4294 63.0089 28.4295 59.7554 27.296 57.2049H13.587C12.673 57.9665 11.028 60.0381 11.7591 62.2316C12.4903 64.425 17.9972 66.4966 20.6593 67.2582C20.3309 66.2028 21.2889 65.0093 25.9251 64.5164C32.4712 63.8204 32.2635 65.7325 32.1567 66.7155C32.1218 67.0363 32.0977 67.2582 32.3226 67.2582C33.0537 67.2582 36.5876 66.0457 38.2632 65.4395Z" fill="#22007C"/>
<path fill-rule="evenodd" clip-rule="evenodd" d="M54.714 30.7009C54.714 30.3942 54.8741 30.2247 55.1227 30.1925C54.9824 30.3731 54.8449 30.5438 54.714 30.7009ZM28.9506 16.8776L28.926 16.9259L29.1238 16.5349C29.0658 16.6509 29.0079 16.765 28.9506 16.8776ZM34.6074 37.5554C44.6607 37.5554 46.0316 34.8136 44.6607 30.7009C43.564 27.4107 45.1177 24.7603 46.0316 23.8464C43.8382 22.0185 42.0712 19.429 41.4619 18.3628C40.3957 19.7337 38.2632 22.7497 38.2632 23.8464C38.2632 25.2173 37.3492 30.2439 35.9783 32.5287C34.8816 34.3566 34.6074 36.6414 34.6074 37.5554Z" fill="#707EFF"/>
<path fill-rule="evenodd" clip-rule="evenodd" d="M33.9178 38.9263C33.2932 40.3525 32.7613 42.1605 32.7394 43.9529C29.3015 44.1281 22.6939 44.0021 21.2713 42.3112C21.1854 42.1178 21.0954 41.9242 21.0049 41.7298C20.1088 39.8041 19.1699 37.7864 21.8124 34.8136C23.5451 32.8643 24.8672 31.9416 25.9732 31.1696C26.2591 33.9075 28.2481 39.2918 33.9178 38.9263ZM39.8033 51.789C41.1573 52.3306 41.1573 52.3306 46.0316 57.2049C50.1516 59.8535 54.2717 60.7964 56.805 61.3762C58.2054 61.6967 59.121 61.9062 59.2836 62.2316C59.3896 62.4434 59.2008 61.894 58.8483 60.868C57.6802 57.4679 54.714 48.8341 54.714 45.3238C54.714 44.7672 54.6462 44.319 54.5296 43.9529C55.2148 44.156 57.0378 44.3231 58.8483 43.3662C58.9754 43.5924 59.1197 43.789 59.2836 43.9529C60.3804 45.0496 65.8335 58.1189 68.423 64.5164C67.8137 66.3443 66.0468 70 63.8533 70C61.1115 70 51.0583 70 46.0316 68.6291C44.1223 68.1084 41.2239 66.9283 38.2632 65.4395C33.4294 63.0089 28.4295 59.7554 27.296 57.2049C27.1655 56.9112 27.0279 56.6059 26.8849 56.291C32.0396 55.5599 35.095 51.7213 35.9783 49.8935C38.1109 51.1121 39.1263 51.5182 39.8033 51.789Z" fill="#707EFF"/>
<path d="M29.1238 21.5616C30.9517 23.3894 30.9517 24.7603 29.1238 27.9591C31.4087 23.9987 35.9783 15.3468 35.9783 12.4222C33.9981 13.1838 29.855 15.0726 29.1238 16.5349C29.0658 16.6509 29.0079 16.765 28.9506 16.8776L28.926 16.9259C28.0917 18.5641 27.4286 19.8663 29.1238 21.5616Z" fill="#B6B2ED"/>
<path d="M44.6607 12.4222C40.2738 8.03534 37.0446 10.5944 35.9783 12.4222C35.9783 15.3468 31.4087 23.9987 29.1238 27.9591C28.1623 29.6417 27.2008 30.3128 25.9732 31.1696C26.2591 33.9075 28.2481 39.2918 33.9178 38.9263C34.1422 38.4139 34.3785 37.9508 34.6074 37.5554C34.6074 36.6414 34.8816 34.3566 35.9783 32.5287C37.3492 30.2439 38.2632 25.2173 38.2632 23.8464C38.2632 22.7497 40.3957 19.7337 41.4619 18.3628C42.0712 19.429 43.8382 22.0185 46.0316 23.8464C48.2251 25.6743 52.7338 29.1777 54.714 30.7009C54.714 30.3942 54.8741 30.2247 55.1227 30.1925C56.6143 28.2715 58.4239 25.2173 56.0849 25.2173C54.2315 25.2173 52.5315 22.7628 50.3628 19.6315C48.7885 17.3584 46.9671 14.7286 44.6607 12.4222Z" fill="#B6B2ED"/>
<path d="M21.8124 43.9529C22.1641 46.063 24.1397 50.3384 25.8646 54.0711C26.2209 54.8422 26.5665 55.5901 26.8849 56.291C32.0396 55.5599 35.095 51.7213 35.9783 49.8935C33.5061 48.4808 32.7115 46.2294 32.7394 43.9529C29.3015 44.1281 22.6939 44.0021 21.2713 42.3112C21.5115 42.8524 21.7191 43.3931 21.8124 43.9529Z" fill="#B6B2ED"/>
<path d="M57.9128 34.8136C57.9128 31.621 55.9852 30.0806 55.1227 30.1925C54.9824 30.3731 54.8449 30.5438 54.714 30.7009C54.714 31.3487 54.3059 32.2005 53.7307 33.4011C53.0886 34.7412 52.2383 36.5159 51.5152 38.9263C50.8073 41.2861 51.6836 41.6961 52.6966 42.1701C53.4064 42.5022 54.1832 42.8656 54.5296 43.9529C55.2148 44.156 57.0378 44.3231 58.8483 43.3662C57.9128 41.7012 57.9128 38.4345 57.9128 34.8136Z" fill="#B6B2ED"/>
<path d="M21.8124 68.6291C24.5542 69.4417 30.4947 70.3053 32.3226 67.2582C32.0977 67.2582 32.1218 67.0363 32.1567 66.7155C32.2635 65.7325 32.4712 63.8204 25.9251 64.5164C21.2889 65.0093 20.3309 66.2028 20.6593 67.2582C20.8229 67.784 21.3059 68.2756 21.8124 68.6291Z" fill="#B6B2ED"/>
</svg>
