<svg width="80" height="80" viewBox="0 0 80 80" fill="none" xmlns="http://www.w3.org/2000/svg">
<rect width="80" height="80" rx="8" fill="white"/>
<path d="M53.4452 10.0076H38.0302V17.6034C38.0302 23.5237 42.2749 27.8801 46.8547 27.8801C51.4346 27.8801 57.69 28.1035 59.5889 28.1035C58.4719 28.7738 56.0712 33.7481 55.2325 37.8217C54.4506 41.6197 48.4021 51.8964 47.8601 52.79C46.7759 54.5773 46.743 55.4709 48.4186 56.5879C50.0941 57.705 54.8923 60.4312 57.1315 61.7263C59.3706 63.0214 60.3914 63.0067 61.823 61.7263C62.8222 60.8327 62.94 59.939 61.823 58.822C60.706 57.705 58.5836 55.4709 57.3549 54.2422C56.3907 53.278 55.9506 52.4549 56.9081 50.7794L57.1554 50.3466C60.4028 44.6637 67.3478 32.5103 69.3071 28.8855C71.3178 25.1657 68.697 21.0398 64.7273 19.9492L54.5623 17.1566C53.557 16.8804 53.4452 16.5981 53.4452 15.7044V10.0076Z" fill="#B6B2ED"/>
<mask id="mask0_763_2159" style="mask-type:alpha" maskUnits="userSpaceOnUse" x="38" y="10" width="32" height="53">
<path d="M53.4452 10.0076H38.0302V17.6034C38.0302 23.5237 42.2749 27.8801 46.8547 27.8801C51.4346 27.8801 57.69 28.1035 59.5889 28.1035C58.4719 28.7738 56.0712 33.7481 55.2325 37.8217C54.4506 41.6197 48.4021 51.8964 47.8601 52.79C46.7759 54.5773 46.743 55.4709 48.4186 56.5879C50.0941 57.705 54.8923 60.4312 57.1315 61.7263C59.3706 63.0214 60.3914 63.0067 61.823 61.7263C62.8222 60.8327 62.94 59.939 61.823 58.822C60.706 57.705 58.5836 55.4709 57.3549 54.2422C56.3907 53.278 55.9506 52.4549 56.9081 50.7794L57.1554 50.3466C60.4028 44.6637 67.3478 32.5103 69.3071 28.8855C71.3178 25.1657 68.697 21.0398 64.7273 19.9492L54.5623 17.1566C53.557 16.8804 53.4452 16.5981 53.4452 15.7044V10.0076Z" fill="#B6B2ED"/>
</mask>
<g mask="url(#mask0_763_2159)">
<path d="M57.5783 50.7794C54.6293 51.0475 51.3973 49.2528 49.8707 48.2102L45.626 55.806L60.4825 64.1838L63.8336 60.4976C62.9773 57.1465 60.5272 50.5113 57.5783 50.7794Z" fill="#22007C"/>
<path d="M57.8017 28.6621L60.8177 18.1619L54.5623 16.1513V9.56077L37.36 9.11395V19.6141L40.1526 25.7578L44.9558 28.6621H57.8017Z" fill="#707EFF"/>
</g>
<path d="M33.562 32.46C34.1875 29.9579 37.2482 19.1301 38.7004 14.0289L47.525 26.8748C37.6951 42.1782 44.509 37.9335 21.1629 59.9391C18.6799 62.2795 21.647 63.7742 23.397 64.1838C25.363 64.72 27.2344 64.9657 26.9715 67.1998C26.7481 69.0988 24.6257 69.9924 23.6204 69.9924H20.0459C16.8065 69.9924 15.8012 68.3169 10.7745 63.2902C9.16595 61.6816 10.4394 60.1066 11.2213 59.3806C12.7851 57.9284 17.3153 53.1252 18.0352 51.3379C21.2746 43.2952 26.9715 40.391 29.6524 39.609C32.3333 38.8271 32.7801 35.5877 33.562 32.46Z" fill="#B6B2ED"/>
<mask id="mask1_763_2159" style="mask-type:alpha" maskUnits="userSpaceOnUse" x="10" y="14" width="38" height="56">
<path d="M33.562 32.46C34.1875 29.9579 37.2482 19.1301 38.7004 14.0289L47.525 26.8748C37.6951 42.1782 44.509 37.9335 21.1629 59.9391C18.6799 62.2795 21.647 63.7742 23.397 64.1838C25.363 64.72 27.2344 64.9657 26.9715 67.1998C26.7481 69.0988 24.6257 69.9924 23.6204 69.9924H20.0459C16.8065 69.9924 15.8012 68.3169 10.7745 63.2902C9.16595 61.6816 10.4394 60.1066 11.2213 59.3806C12.7851 57.9284 17.3153 53.1252 18.0352 51.3379C21.2746 43.2952 26.9715 40.391 29.6524 39.609C32.3333 38.8271 32.7801 35.5877 33.562 32.46Z" fill="#707EFF"/>
</mask>
<g mask="url(#mask1_763_2159)">
<path d="M21.945 59.8274C17.812 60.4976 15.5779 57.3699 14.0141 55.806L7.87036 61.9497L16.5832 71.7796L24.1791 72.3382L28.9823 66.753L21.945 59.8274Z" fill="#22007C"/>
<path d="M42.3866 37.3748L33.0035 32.1247L38.8121 12.3532L48.4186 27.0981L42.3866 37.3748Z" fill="#707EFF"/>
</g>
</svg>
