<svg width="256" height="256" viewBox="0 0 256 256" fill="none" xmlns="http://www.w3.org/2000/svg">
<circle cx="128" cy="128" r="128" fill="#7C70FF"/>
<path d="M76.3664 41.4545C76.2774 41.2987 76.1117 41.2026 75.9323 41.2026H74.727C74.4864 41.2026 74.2799 41.3739 74.2356 41.6104C74.1912 41.8468 74.3215 42.0814 74.5458 42.1686C74.8455 42.2852 75.3226 42.5589 75.7178 42.9813C76.1076 43.3979 76.3965 43.9343 76.3965 44.5952C76.3965 44.7846 76.5035 44.9577 76.6729 45.0424C76.8423 45.1271 77.045 45.1089 77.1965 44.9952C77.4164 44.8303 77.465 44.5709 77.4753 44.4088C77.4873 44.2195 77.4586 43.9957 77.3929 43.739C77.2608 43.2231 76.956 42.4863 76.3664 41.4545ZM76.4744 44.3689C76.4741 44.3687 76.4746 44.3647 76.4763 44.358C76.4754 44.3658 76.4746 44.3692 76.4744 44.3689Z" fill="white" stroke="white" stroke-linejoin="round"/>
<path d="M59.8886 50.9344C59.9776 51.1569 60.212 51.285 60.4474 51.2397C60.6827 51.1944 60.8528 50.9884 60.8528 50.7487C60.8528 50.0786 60.4508 48.5905 59.0056 47.2486C58.6564 46.9242 58.3645 46.7003 58.1182 46.5704C57.9063 46.4587 57.5596 46.3284 57.2395 46.5201C56.919 46.7119 56.8909 47.0666 56.8908 47.2184C56.8908 47.4094 56.9342 47.6058 56.9823 47.762C57.0181 47.8786 57.0954 47.978 57.1994 48.0416C57.5299 48.2436 58.0785 48.6425 58.6114 49.1629C59.1479 49.6869 59.6359 50.3028 59.8886 50.9344ZM52.4254 39.8281C52.3305 39.7106 52.1875 39.6423 52.0364 39.6423H51.0722C50.865 39.6423 50.6793 39.7701 50.6052 39.9636C50.5312 40.1571 50.5842 40.3763 50.7384 40.5146L54.2337 43.6483C54.4278 43.8223 54.7229 43.818 54.9118 43.6386C55.1008 43.4591 55.1202 43.1646 54.9565 42.9618L52.4254 39.8281ZM73.4792 38.1755C73.522 38.4322 73.7544 38.6131 74.0136 38.5916C74.2729 38.5702 74.4724 38.3535 74.4724 38.0933C74.4724 37.8178 74.4214 37.5497 74.3357 37.2938C74.1257 36.3262 73.6176 34.8267 72.0986 33.7127C71.7226 33.437 71.4116 33.2503 71.1533 33.144C70.9193 33.0477 70.6138 32.9689 70.3311 33.097C69.9954 33.2491 69.9203 33.5723 69.9134 33.7622C69.9064 33.9553 69.9557 34.1452 70.0072 34.2868C70.0485 34.4005 70.1297 34.4953 70.2356 34.5537C70.7114 34.8163 71.4018 35.2703 72.0275 35.8246C72.6535 36.3791 73.1616 36.9875 73.3707 37.5633C73.411 37.7566 73.4383 37.9243 73.4618 38.0694C73.4678 38.1062 73.4735 38.1416 73.4792 38.1755ZM67.446 29.8975C67.446 29.9833 67.4681 30.0678 67.5102 30.1426C67.6882 30.459 67.955 30.9512 68.176 31.3971C68.2868 31.6208 68.3828 31.8261 68.4499 31.9887C68.4836 32.0704 68.5071 32.1344 68.5214 32.1805C68.5267 32.1976 68.5298 32.2092 68.5314 32.2157C68.5346 32.2915 68.553 32.4127 68.6367 32.5291C68.7539 32.6921 68.9345 32.7587 69.0966 32.7518C69.2301 32.7461 69.3314 32.6936 69.3852 32.6606C69.446 32.6233 69.4967 32.5794 69.5369 32.5392C69.6913 32.3847 69.829 32.146 69.9151 31.8687C70.0962 31.2851 70.0734 30.4544 69.4308 29.5975C69.2005 29.2905 68.9821 29.0608 68.7663 28.9215C68.5474 28.7801 68.2388 28.6803 67.9328 28.8389C67.6687 28.9759 67.5609 29.2334 67.5146 29.3877C67.4624 29.5615 67.446 29.7458 67.446 29.8975ZM49.5108 34.2268C49.547 34.0674 49.5031 33.9005 49.3932 33.7796C49.2778 33.6527 49.1321 33.5111 48.9743 33.3872C48.8237 33.2688 48.6288 33.1398 48.4171 33.0746C48.2001 33.0078 47.857 32.9835 47.5907 33.2584C47.3679 33.4884 47.318 33.8192 47.318 34.1159C47.318 34.6222 47.5705 35.2048 47.8607 35.7255C48.1556 36.2546 48.5382 36.8032 48.9085 37.2865C49.1395 37.7352 49.4704 38.1575 49.9328 38.4965C50.1399 38.6484 50.4283 38.6187 50.6001 38.4278C50.7719 38.237 50.7712 37.947 50.5985 37.757C50.3691 37.5047 50.0688 37.1519 49.7603 36.7536C49.335 35.8636 49.3838 34.7857 49.5108 34.2268ZM53.4875 74.1353C53.7191 74.1905 53.9575 74.0746 54.0572 73.8584C54.157 73.6423 54.0905 73.3857 53.8983 73.2452C53.4038 72.8839 52.6391 72.2238 51.9794 71.4381C51.3084 70.639 50.8062 69.7804 50.7258 69.0165C50.7025 68.7956 50.5363 68.6165 50.3177 68.5769C50.0991 68.5373 49.8806 68.6466 49.7813 68.8453C49.4492 69.5095 49.2465 70.5756 49.7323 71.6286C50.2254 72.6975 51.3703 73.6312 53.4875 74.1353ZM42.8845 71.4398C43.0767 71.5409 43.3121 71.5065 43.4672 71.3545C43.6224 71.2026 43.6617 70.9679 43.5646 70.7737C42.9674 69.5793 41.6288 66.949 41.1308 66.1523C41.0849 66.0788 41.014 65.9767 40.9137 65.8998C40.8621 65.8603 40.767 65.7994 40.6346 65.7828C40.4802 65.7635 40.3304 65.8117 40.2176 65.9085C40.1211 65.9915 40.0757 66.0887 40.0542 66.1461C40.0309 66.2081 40.0197 66.2669 40.0137 66.3126C40.0015 66.4038 40.0025 66.5002 40.0083 66.589C40.0311 66.9412 40.1514 67.4783 40.3556 68.0595C40.7575 69.2033 41.5651 70.7454 42.8845 71.4398ZM42.805 67.6514C43.0079 67.8137 43.3012 67.7936 43.48 67.6052C43.6588 67.4169 43.6637 67.1229 43.4911 66.9288C43.3662 66.7882 43.1599 66.4963 42.9982 66.1202C42.8367 65.745 42.7332 65.3182 42.7717 64.8957C42.7877 64.7197 42.7912 64.5428 42.7569 64.3985C42.7473 64.3583 42.7314 64.305 42.7026 64.2488C42.6754 64.1958 42.6215 64.11 42.5214 64.0424C42.407 63.9651 42.2645 63.9341 42.1233 63.9627C41.9992 63.9879 41.9139 64.0511 41.8677 64.0927C41.7791 64.1724 41.73 64.2668 41.7055 64.3193C41.6759 64.3827 41.6528 64.4507 41.6346 64.5175C41.5979 64.6519 41.5725 64.8133 41.5634 64.9905C41.5271 65.6981 41.7467 66.8047 42.805 67.6514ZM52.6185 69.9101C52.8505 69.9784 53.0981 69.8708 53.2065 69.6546C53.3149 69.4384 53.2531 69.1756 53.0596 69.0304C52.8306 68.8587 52.5038 68.6049 52.2392 68.1638C51.9778 67.7282 51.7574 67.0754 51.8125 66.0834C51.8269 65.823 51.6389 65.5953 51.3804 65.5602C51.122 65.5252 50.8801 65.6946 50.8247 65.9495C50.7121 66.4674 50.6557 67.275 50.8639 68.0401C51.0769 68.8226 51.5857 69.6064 52.6185 69.9101ZM60.2454 70.509C59.9945 70.5642 59.8263 70.8005 59.8562 71.0556C59.8862 71.3107 60.1046 71.5017 60.3614 71.4972C61.6984 71.4742 64.0919 70.9865 66.8702 69.5975C66.7127 69.7331 66.5519 69.8689 66.3889 70.0045C65.0534 71.1156 63.5913 72.1908 62.5997 72.876C62.3983 73.0151 62.3272 73.2796 62.4318 73.5009C62.5364 73.7223 62.7859 73.8353 63.0212 73.7681C63.5159 73.6268 64.7055 73.0516 65.9951 72.2153C67.2951 71.3724 68.764 70.2213 69.7884 68.892C70.5587 67.8923 70.9812 67.3096 71.1953 66.9861C71.2696 66.8737 71.338 66.7649 71.3832 66.6702C72.4139 65.8329 73.45 64.8619 74.464 63.7392C74.6391 63.5454 74.6354 63.2494 74.4556 63.0599C74.2758 62.8704 73.9804 62.8513 73.7776 63.016C72.5091 64.0467 70.2987 65.666 67.8096 67.1575C65.312 68.654 62.5756 69.9963 60.2454 70.509ZM77.3391 55.8189C77.1684 55.6482 76.9002 55.6238 76.7015 55.7609C76.5029 55.8981 76.4306 56.1575 76.5296 56.3776C76.5523 56.4281 76.5755 56.4776 76.5992 56.5261C76.5112 56.4458 76.3951 56.3976 76.27 56.3957C76.052 56.3924 75.857 56.5307 75.7881 56.7375C75.6597 57.1226 75.68 57.677 76.0215 58.2129C76.3651 58.7521 77.0048 59.2313 78.0472 59.544C78.2957 59.6186 78.56 59.4906 78.6556 59.2494C78.7513 59.0082 78.6465 58.7339 78.4144 58.6179C77.9926 58.4069 77.1053 57.8023 76.7735 56.8511C77.7998 58.5996 79.4924 58.8529 80.322 58.7146C80.5574 58.6754 80.7322 58.4753 80.7396 58.2368C80.7469 57.9983 80.5847 57.7879 80.3522 57.7342C79.8169 57.6107 79.2055 57.2808 78.638 56.8882C78.0776 56.5005 77.6003 56.0801 77.3391 55.8189ZM40.2661 66.6573C40.2652 66.6563 40.2648 66.6557 40.2648 66.6557C40.2648 66.6557 40.2652 66.6562 40.2661 66.6573Z" fill="white" stroke="white" stroke-linejoin="round"/>
<path d="M143.862 201.167C143.664 200.977 143.349 200.983 143.158 201.18C142.966 201.378 142.97 201.693 143.167 201.885C148.271 206.892 152.971 207.999 156.805 207.244C160.604 206.495 163.442 203.937 164.901 201.811C165.049 201.595 165.006 201.302 164.801 201.138C164.597 200.974 164.301 200.996 164.123 201.187C160.289 205.301 156.141 206.136 152.504 205.543C148.835 204.944 145.657 202.883 143.862 201.167ZM150.217 215.741C150.081 215.506 149.782 215.423 149.544 215.553C149.306 215.683 149.215 215.98 149.34 216.221C151.232 219.883 153.625 222.165 156.193 223.498C158.755 224.828 161.457 225.195 163.945 225.086C168.262 224.898 172.02 223.262 173.358 222.681C173.551 222.596 173.694 222.534 173.781 222.502L173.817 222.489C174.075 222.397 174.211 222.113 174.121 221.854C174.031 221.595 173.75 221.457 173.49 221.544C173.474 221.549 173.458 221.555 173.442 221.561L173.438 221.562C160.218 226.264 152.438 219.57 150.217 215.741Z" fill="white" stroke="white" stroke-linejoin="round"/>
<path d="M208.609 122.185C208.526 122.435 208.652 122.708 208.897 122.806C209.143 122.904 209.422 122.795 209.535 122.556C209.673 122.267 209.812 121.972 209.954 121.672C212.93 115.391 216.917 106.975 222.833 99.8048C229.023 92.3025 237.293 86.2043 248.685 85.3499C248.837 85.3385 248.975 85.2589 249.06 85.1336C249.146 85.0082 249.17 84.8507 249.126 84.7054L248.282 81.9398C248.208 81.6971 247.964 81.5483 247.714 81.5938C235.838 83.7568 218.21 93.1861 208.609 122.185Z" fill="white" stroke="white" stroke-linejoin="round"/>
<path d="M235.359 121.998C235.618 121.998 235.834 121.8 235.857 121.541C235.879 121.283 235.7 121.05 235.444 121.006C225.59 119.293 212.098 118.25 199.357 123.492C186.584 128.746 174.651 140.279 167.865 163.543C167.847 163.606 167.829 163.666 167.812 163.725C167.621 164.383 167.51 164.762 167.365 165.091C167.217 165.426 167.027 165.717 166.636 166.195C166.243 166.636 165.876 167.054 165.544 167.468C165.374 167.681 165.405 167.99 165.614 168.164C165.823 168.339 166.133 168.314 166.312 168.109L166.313 168.108C166.773 167.58 167.124 167.178 167.397 166.845C167.473 166.76 167.55 166.673 167.629 166.585C169.994 163.94 173.455 160.069 177.368 150.126C179.693 144.218 183.556 137.209 192.118 131.666C200.69 126.115 214.025 121.998 235.359 121.998Z" fill="white" stroke="white" stroke-linejoin="round"/>
<path d="M116.39 123.796C116.213 123.619 115.936 123.602 115.739 123.748C113.555 119.39 110.892 115.095 107.733 111.525C107.595 111.369 107.376 111.315 107.181 111.388C106.987 111.462 106.859 111.648 106.859 111.856V115.472C106.859 115.57 106.887 115.666 106.942 115.748C109.146 119.074 112.549 124.51 115.593 130.003C118.648 135.515 121.303 141.019 122.056 144.504C122.114 144.773 122.379 144.944 122.648 144.888C122.917 144.831 123.09 144.567 123.035 144.298C122.214 140.292 120.108 132.984 116.633 125.59C118.652 127.857 121.566 130.919 124.719 133.828C128.413 137.236 132.482 140.481 135.842 141.963C139.876 143.743 144.594 147.082 148.676 150.564C152.764 154.051 156.152 157.627 157.557 159.852C158.143 160.78 158.8 161.662 159.479 162.575C159.652 162.809 159.827 163.044 160.003 163.282C160.872 164.462 161.777 165.746 162.666 167.332C164.441 170.498 166.173 174.901 167.37 182.085C167.413 182.342 167.647 182.524 167.907 182.501C168.167 182.478 168.365 182.26 168.363 181.999C168.342 179.401 167.883 175.942 166.771 172.058C173.467 173.655 177.362 179.414 178.488 182.191C178.589 182.438 178.864 182.563 179.116 182.475C179.367 182.388 179.506 182.118 179.432 181.863C176.763 172.711 169.94 170.707 166.414 170.869C163.071 160.224 154.848 146.758 137.481 138.892C125.562 131.777 118.439 125.845 116.39 123.796ZM101.796 166.334C101.796 166.393 101.807 166.45 101.826 166.505L105.683 177.112C105.701 177.161 105.727 177.207 105.758 177.247C105.914 180.416 106.164 183.712 106.536 186.953C107.056 191.481 107.817 195.914 108.899 199.757C109.979 203.589 111.391 206.88 113.243 209.082C114.237 210.264 115.171 211.399 116.067 212.487C119.167 216.254 121.813 219.47 124.928 222.184C128.971 225.706 133.803 228.39 141.458 230.455C148.94 232.474 152.207 235.718 153.974 238.469C154.654 239.528 155.111 240.51 155.512 241.37C155.64 241.646 155.763 241.91 155.885 242.159C156.13 242.659 156.384 243.121 156.688 243.477C157.001 243.844 157.389 244.121 157.898 244.206C158.095 244.239 158.32 244.285 158.571 244.336C160.098 244.646 162.617 245.157 166.019 244.238C169.951 243.176 175.016 240.226 181.222 233.034C198.099 231.054 210.262 220.981 217.602 211.47C217.727 211.637 217.946 211.712 218.152 211.648C219.403 211.257 220.334 210.876 221.161 210.539C222.977 209.797 224.292 209.26 227.404 209.26C227.56 209.26 227.707 209.187 227.801 209.063L231.207 204.597C231.35 204.41 231.343 204.149 231.191 203.97C231.039 203.791 230.782 203.742 230.575 203.853L227.213 205.643C224.326 206.505 220.686 208.721 218.599 210.142C221.14 206.659 223.024 203.309 224.246 200.524C224.35 200.286 224.255 200.009 224.028 199.884C223.801 199.76 223.516 199.83 223.372 200.046C205.358 227.067 178.832 232.518 167.892 231.884C167.624 231.869 167.391 232.068 167.366 232.336C167.34 232.603 167.53 232.843 167.797 232.879C171.79 233.414 175.583 233.506 179.175 233.232C176.378 235.285 172.61 237.731 168.921 239.487C166.745 240.523 164.62 241.308 162.751 241.639C160.932 241.961 159.434 241.84 158.36 241.192C157.327 239.234 155.487 236.37 153.228 233.969C150.944 231.541 148.125 229.473 145.204 229.473C143.622 229.473 141.318 228.844 138.647 227.652C135.989 226.466 133.014 224.744 130.102 222.609C124.267 218.329 118.752 212.438 116.509 205.945C115.563 203.205 114.749 201.12 114.023 199.26C113.867 198.862 113.716 198.475 113.569 198.094C112.731 195.93 112.008 193.96 111.306 191.393C109.901 186.249 108.578 178.689 106.65 162.419C106.619 162.16 106.395 161.968 106.134 161.978C105.873 161.988 105.664 162.197 105.654 162.457C105.571 164.501 105.526 166.957 105.545 169.667C105.432 169.167 105.314 168.665 105.193 168.163C104.386 164.83 103.419 161.493 102.773 159.435C102.7 159.2 102.465 159.053 102.221 159.091C101.977 159.128 101.796 159.338 101.796 159.585V166.334ZM245.982 133.586C246 133.322 245.81 133.09 245.548 133.055C245.286 133.021 245.042 133.196 244.992 133.455C241.065 153.663 231.006 165.207 220.063 171.456C209.104 177.714 197.22 178.682 189.637 177.652C189.634 177.652 189.63 177.651 189.627 177.651C189.626 177.651 189.626 177.651 189.626 177.651C189.352 177.613 189.1 177.805 189.063 178.078C189.025 178.351 189.216 178.603 189.49 178.641C210.572 181.556 224.421 174.67 233.136 164.828C241.826 155.013 245.373 142.303 245.982 133.586ZM189.284 187.129C189.073 187.267 188.998 187.541 189.109 187.767C193.991 197.719 188.644 207.284 185.336 210.829C185.16 211.018 185.156 211.31 185.328 211.503C185.5 211.696 185.79 211.726 185.998 211.573C191.997 207.147 193.953 202.16 193.897 197.695C193.841 193.264 191.804 189.42 189.939 187.223C189.776 187.031 189.495 186.991 189.284 187.129ZM188.502 150.978C188.652 150.791 188.648 150.524 188.493 150.342C188.337 150.159 188.074 150.113 187.866 150.23C182.119 153.478 179.789 159.819 179.148 165.251C178.827 167.976 178.925 170.511 179.246 172.378C179.406 173.308 179.626 174.096 179.891 174.665C180.022 174.948 180.177 175.202 180.36 175.393C180.542 175.582 180.799 175.753 181.121 175.753C181.291 175.753 181.449 175.667 181.541 175.524C181.633 175.382 181.647 175.202 181.577 175.047C179.828 171.181 180.556 166.399 182.264 161.908C183.965 157.434 186.6 153.356 188.502 150.978ZM127.448 162.777C127.453 162.784 127.459 162.791 127.464 162.798C127.681 163.058 127.911 163.34 128.153 163.642C133.682 171.251 141.351 187.303 144.747 194.981C144.852 195.218 145.121 195.336 145.366 195.252C145.612 195.167 145.752 194.909 145.689 194.657C142.551 182.104 133.635 168.892 128.948 163.035C128.452 162.352 127.969 161.732 127.505 161.189C127.33 160.983 127.023 160.954 126.813 161.123C126.602 161.292 126.563 161.597 126.725 161.813L127.448 162.777ZM181.152 174.758C181.152 174.758 181.151 174.758 181.15 174.757C181.151 174.758 181.152 174.758 181.152 174.758Z" fill="white" stroke="white" stroke-linejoin="round"/>
<path d="M75.0495 83.0123C74.96 82.744 74.7341 82.3703 74.4747 81.9677L70.1503 74.2457C69.5406 72.426 69.4297 70.7474 70.1868 69.4398C72.2619 65.8555 76.7522 61.6111 78.7536 59.9299C78.9561 59.7598 78.9911 59.4614 78.8335 59.2491C78.6758 59.0367 78.3801 58.9838 78.1586 59.1285C76.1644 60.4308 73.5334 62.477 71.3709 64.6415C70.2897 65.7238 69.3146 66.8465 68.5941 67.9302C67.8808 69.0032 67.3819 70.0896 67.3264 71.09C67.2728 72.0542 67.5189 73.1639 67.9338 74.2982C68.3513 75.4393 68.9527 76.64 69.6441 77.7981C71.0229 80.1076 72.7911 82.2998 74.2497 83.5501C74.4204 83.6963 74.6676 83.7108 74.8541 83.5854C75.0406 83.46 75.1205 83.2255 75.0495 83.0123ZM46.4842 76.5495C46.3076 76.3728 46.0276 76.3537 45.8285 76.5047C45.6295 76.6556 45.5724 76.9304 45.6949 77.1482C46.1154 77.8957 46.6583 78.8262 47.3153 79.9152C44.9558 78.0795 42.1039 75.794 39.5648 73.6242C37.8751 72.1803 36.3306 70.7934 35.1636 69.6273C34.5796 69.0439 34.0966 68.5222 33.739 68.0808C33.3706 67.6262 33.1719 67.3004 33.106 67.1027C32.6826 65.8328 32.9272 64.0478 33.898 61.9738C34.8616 59.9152 36.5092 57.643 38.7657 55.4458C38.7718 55.44 38.7776 55.434 38.7833 55.4278C39.9842 54.1345 41.7804 51.6658 43.6319 49.121C44.2353 48.2915 44.8447 47.454 45.4412 46.6464C46.665 44.9897 47.839 43.4526 48.8194 42.3321C49.3107 41.7706 49.7415 41.3275 50.0969 41.0287C50.2747 40.8792 50.4221 40.7757 50.5391 40.7118C50.6519 40.6502 50.7046 40.6431 50.7104 40.6423C50.7109 40.6422 50.711 40.6422 50.7107 40.6422C50.9288 40.6422 51.3503 40.5652 51.8581 40.4564C52.3914 40.3422 53.0843 40.1777 53.8864 39.9754C55.4913 39.5707 57.5457 39.0115 59.6588 38.3923C61.7714 37.7731 63.9476 37.0925 65.7948 36.4445C67.6261 35.8022 69.1804 35.1764 70.0161 34.6622C70.284 34.4973 70.7363 34.4115 71.4072 34.4586C72.0646 34.5047 72.8624 34.673 73.7601 34.938C75.5537 35.4675 77.6713 36.3601 79.7234 37.3237C81.7718 38.2855 83.7377 39.3098 85.2257 40.0959C85.4698 40.2248 85.7016 40.3477 85.919 40.4629C86.2457 40.6361 86.5398 40.7919 86.794 40.9253C85.5177 40.7365 84.2051 40.5611 82.9556 40.4226C81.3534 40.2451 79.8425 40.127 78.6404 40.1213C78.0403 40.1185 77.5032 40.1436 77.0639 40.2073C76.6486 40.2675 76.2333 40.373 75.9536 40.5927C75.816 40.7009 75.4412 40.8787 74.798 41.1113C74.1806 41.3345 73.3808 41.5863 72.4549 41.8583C70.7592 42.3566 68.6669 42.915 66.5476 43.4807C66.3532 43.5326 66.1586 43.5846 65.964 43.6365C63.6533 44.2537 61.3504 44.8738 59.5568 45.4231C58.6608 45.6974 57.8816 45.9572 57.2877 46.193C56.9913 46.3107 56.7314 46.4262 56.5223 46.5386C56.3287 46.6427 56.1227 46.7728 55.9885 46.9367C55.7093 47.2779 55.2322 47.9435 54.5868 48.8437C52.5777 51.6464 48.9377 56.7239 44.5613 61.3739C44.3786 61.568 44.3803 61.8713 44.5651 62.0633C44.75 62.2553 45.0529 62.2687 45.2539 62.0935C48.0616 59.6468 54.4566 53.5727 57.4963 48.885C58.03 48.2989 58.4386 47.9658 58.9574 47.6974C59.5049 47.4142 60.1926 47.1929 61.3231 46.859C61.5004 46.8067 61.6873 46.7519 61.8849 46.694C64.1906 46.0182 67.9511 44.916 74.7183 42.3103C75.4296 42.161 76.5387 42.1096 77.9063 42.137C79.286 42.1647 80.8906 42.2714 82.5421 42.421C85.6864 42.7058 88.9792 43.1441 91.1703 43.4792C91.315 44.0493 91.4666 44.7883 91.5611 45.5498C91.6729 46.4522 91.6986 47.3419 91.563 48.013C91.419 48.3995 91.2676 48.7104 91.1393 48.9268C91.0699 49.0441 91.0535 49.1792 91.0844 49.303C90.3174 49.3042 88.9076 49.217 87.2207 49.0459C85.1518 48.836 82.7291 48.5067 80.7023 48.0894C78.5686 47.6501 76.6817 47.7115 74.4465 48.7102C72.2448 49.6939 69.7247 51.5787 66.2833 54.7182C61.295 59.269 55.7902 61.1778 53.0934 62.1129C52.8653 62.192 52.6574 62.2641 52.4715 62.3303C52.2423 62.4119 52.105 62.6466 52.1464 62.8864C52.1878 63.1262 52.3958 63.3013 52.6391 63.3013C53.5818 63.3013 54.8302 62.9545 56.2096 62.4073C57.6036 61.8544 59.1836 61.0751 60.8084 60.164C64.0566 58.3426 67.5196 55.974 70.0794 53.7798C71.575 52.4979 73.4855 51.4661 75.0402 50.7509C75.8143 50.3948 76.4931 50.1203 76.9777 49.9351C77.2199 49.8425 77.4133 49.7724 77.5454 49.7256C77.5832 49.7122 77.616 49.7008 77.6434 49.6912C81.6833 50.15 84.7956 50.4891 87.0547 50.7352C89.191 50.9679 90.5644 51.1176 91.2379 51.2067C92.0801 52.967 92.0851 54.2328 91.668 55.1499C91.2259 56.122 90.2478 56.8425 88.8942 57.3459C86.1816 58.3547 82.2975 58.3643 79.6904 58.0857C79.4201 58.0568 79.1762 58.2492 79.1414 58.5189C79.1066 58.7885 79.2936 59.0366 79.5625 59.0772C84.18 59.776 87.3818 59.5749 89.5609 58.834C91.7633 58.0852 92.9238 56.781 93.4003 55.3344C93.8675 53.9161 93.6539 52.4335 93.2608 51.3303C93.0634 50.7764 92.813 50.2955 92.5579 49.9465C92.4314 49.7735 92.2922 49.6168 92.1443 49.5006C92.1108 49.4743 92.0713 49.4457 92.0265 49.418C92.2824 49.1012 92.4352 48.7018 92.5263 48.2906C93.0612 46.8149 93.4571 44.4792 92.5158 42.126C92.4523 41.9672 92.312 41.8519 92.144 41.8203C91.1309 41.6298 89.8842 41.4106 88.5374 41.1943C88.5657 41.134 88.5811 41.0704 88.5849 41.0093C88.592 40.8957 88.5593 40.8093 88.544 40.7733C88.5258 40.7304 88.5052 40.6973 88.4916 40.677C88.4445 40.6068 88.381 40.5442 88.3392 40.5045C88.2401 40.4104 88.0906 40.2858 87.905 40.1409C87.5289 39.8472 86.9638 39.4384 86.2541 38.9639C85.1817 38.2469 83.7691 37.3734 82.1641 36.5145C82.1757 36.5027 82.1867 36.4902 82.1973 36.4771C82.3503 36.2856 82.3421 36.0115 82.1778 35.8296C81.4829 35.0604 79.0919 33.0441 76.3145 31.2548C74.9202 30.3565 73.4116 29.5043 71.9525 28.8904C70.5032 28.2805 69.0558 27.8856 67.7993 27.9517C65.4574 28.075 59.9931 29.1103 55.1401 30.3161C52.7078 30.9204 50.4066 31.5729 48.7073 32.1839C47.8606 32.4883 47.1436 32.7894 46.6305 33.0771C46.3758 33.2199 46.1485 33.3719 45.9784 33.5347C45.8224 33.6839 45.6307 33.9218 45.6307 34.2364C45.6307 34.259 45.6226 34.3355 45.5861 34.488C45.5518 34.6311 45.4993 34.8136 45.4285 35.0344C45.2872 35.4755 45.0802 36.0468 44.8205 36.7199C44.3016 38.0649 43.5814 39.7936 42.7789 41.6554C41.1878 45.3465 39.2807 49.5438 37.9974 52.2738C37.115 53.2358 36.0108 54.8104 35.0506 56.1797C34.7316 56.6347 34.4284 57.067 34.1545 57.4467C32.8219 59.2943 31.8194 60.8856 31.181 62.3101C30.5414 63.7372 30.2536 65.0264 30.3869 66.2586C30.6542 68.7306 32.5867 70.7422 35.9584 73.0926C35.9595 73.0933 35.9605 73.0941 35.9615 73.0948L37.346 74.0898C37.3465 74.0901 37.347 74.0905 37.3474 74.0908C38.1007 74.64 39.0279 75.3224 40.031 76.0607L40.2799 76.2439C41.3783 77.0524 42.5556 77.9183 43.6848 78.7417C45.8456 80.3173 47.8599 81.7588 48.8007 82.3321C53.04 89.1154 60.2872 99.8371 69.3666 110.967C69.534 111.172 69.8324 111.211 70.047 111.056C70.2616 110.901 70.318 110.605 70.1756 110.382C67.2004 105.718 62.4486 98.4335 57.8607 91.7346C53.2861 85.0552 48.8384 78.9037 46.4842 76.5495ZM43.6287 45.4809C43.3103 45.9011 42.98 46.3343 42.6357 46.779C43.1695 45.7435 43.7014 44.6652 44.2162 43.6022C44.6248 42.7585 45.0195 41.9311 45.3966 41.1408C45.8117 40.2707 46.2054 39.4454 46.5726 38.6928C47.2751 37.253 47.845 36.1546 48.2277 35.6078C48.3697 35.405 48.6999 35.1377 49.26 34.8292C49.8045 34.5294 50.511 34.2199 51.3397 33.91C52.9957 33.2906 55.0952 32.6858 57.2616 32.1611C59.4262 31.6368 61.6461 31.1951 63.5392 30.8999C65.4481 30.6021 66.9796 30.4608 67.7912 30.5167C68.4137 30.5597 69.3611 30.8222 70.5251 31.2519C71.6758 31.6768 72.9945 32.2482 74.3423 32.8784C75.2524 33.3039 76.1728 33.7548 77.0598 34.2032C75.8119 33.7501 74.5381 33.379 73.2848 33.1445C70.8318 32.6855 68.3969 32.739 66.3879 33.7937C62.8272 35.663 59.0377 36.5581 55.6958 37.3475C55.5923 37.3719 55.4892 37.3963 55.3866 37.4205C53.6894 37.822 52.1019 38.206 50.7561 38.6905C49.4136 39.1737 48.2546 39.7758 47.4507 40.6468C46.4838 41.6942 45.4654 43.0455 44.3038 44.5868C44.0841 44.8783 43.8593 45.1766 43.6287 45.4809Z" fill="white" stroke="white" stroke-linejoin="round"/>
<path d="M80.03 241.055L73.0394 244.188L69.4236 241.055C73.2805 242.742 75.2089 239.126 77.6195 239.367C79.7371 239.579 82.5987 228.071 83.263 226.742C80.0522 229.887 76.9648 231.764 74.4858 232.618C96.1807 214.78 99.7454 192.603 100.761 163.435C99.4578 126.023 107.028 94.9755 113.017 90.3871C110.885 70.87 101.87 49.0305 95.6986 40.7382C91.3596 37.6098 88.949 40.5392 87.0206 37.1224C85.0922 33.7056 80.03 32.7834 77.8605 32.7834C79.3872 31.8192 83.7905 31.3371 89.1901 37.1224C93.288 38.5687 94.2522 35.9171 99.0733 42.6666C103.894 49.4162 113.537 80.0301 113.537 89.4312C109.84 96.1808 102.448 119.611 102.448 159.337C103.309 196.932 92.8343 217.284 83.3782 226.628C83.3957 226.653 83.4048 226.72 83.4048 226.832C83.4048 228.568 81.1549 237.037 80.03 241.055Z" fill="#22007C"/>
<path d="M76.3979 153.447C77.4096 144.192 78.4069 118.471 78.8248 105.1C80.9609 116.671 78.3317 140.497 76.3979 153.447C76.2423 154.871 76.0863 155.905 75.9321 156.444C76.0804 155.53 76.2367 154.526 76.3979 153.447Z" fill="#22007C"/>
<path d="M89.7242 156.853C89.3014 154.639 88.751 152.756 88.2259 151.382C89.0185 152.928 89.4921 154.799 89.7242 156.853C90.9834 163.451 91.1095 172.995 86.0564 180.791C87.9077 175.492 90.6212 164.797 89.7242 156.853Z" fill="#22007C"/>
<path d="M46.7645 224.422C46.8451 224.449 46.9283 224.476 47.014 224.502C53.1529 226.316 61.1113 218.014 64.3615 213.574C58.8966 224.881 50.6848 225.599 47.014 224.502C46.9305 224.477 46.8473 224.45 46.7645 224.422Z" fill="#22007C"/>
<path d="M73.0394 217.19C77.6195 208.753 87.0688 190.771 88.2259 186.335C83.1637 195.495 73.0394 214.49 73.0394 217.19Z" fill="#22007C"/>
<path d="M56.1656 146.32C40.3524 149.791 30.6138 162.39 27.7212 168.256C31.9915 155.822 39.9021 150.007 46.7645 147.641C60.0623 135.329 73.255 106.619 75.7573 84.64C75.432 83.4546 75.0846 82.3578 74.7268 81.4764C71.7344 74.1059 77.8605 70.87 80.9942 70.87C78.7444 71.2718 73.853 73.8303 75.9321 79.548C77.673 84.3356 77.049 88.5338 77.6274 93.3841C77.7707 94.2435 77.8533 94.8268 77.8605 94.9755C77.7659 94.4364 77.6897 93.9065 77.6274 93.3841C77.2855 91.3338 76.5983 87.7114 75.7643 84.6657C72.0965 120.254 54.9877 141.435 46.7645 147.641C50.4385 146.374 53.8121 146.096 56.1656 146.32Z" fill="#22007C"/>
<path d="M48.934 186.335C47.8894 182.237 43.4379 174.427 33.9886 175.97C37.3634 176.05 45.0771 178.236 48.934 186.335Z" fill="#22007C"/>
<path d="M28.7874 172.658C39.5403 178.462 43.327 190.039 43.8718 195.254C41.22 185 33.3683 176.664 28.8601 172.995C30.3923 180.271 29.3733 187.003 27.7212 191.397C31.7709 163.049 11.5705 149.534 0.964111 146.32V143.669C19.047 150.969 26.5054 162.331 28.7874 172.658Z" fill="#22007C"/>
<path d="M113.537 89.4312C109.84 96.1808 102.448 119.611 102.448 159.337C103.605 209.862 84.2887 229.243 74.4858 232.618C96.1807 214.78 99.7454 192.603 100.761 163.435C99.4578 126.023 107.028 94.9755 113.017 90.3871M113.537 89.4312C113.537 80.0301 103.894 49.4162 99.0733 42.6666C94.2522 35.9171 93.288 38.5687 89.1901 37.1224C83.7905 31.3371 79.3872 31.8192 77.8605 32.7834C80.03 32.7834 85.0922 33.7056 87.0206 37.1224C88.949 40.5392 91.3596 37.6098 95.6986 40.7382C101.87 49.0305 110.885 70.87 113.017 90.3871M113.537 89.4312C113.369 89.7279 113.195 90.0466 113.017 90.3871M60.7457 146.32C67.0131 151.382 69.1826 149.936 68.7005 159.337M46.7645 147.641C50.4385 146.374 53.8121 146.096 56.1656 146.32C40.3524 149.791 30.6138 162.39 27.7212 168.256C31.9915 155.822 39.9021 150.007 46.7645 147.641ZM46.7645 147.641C55.121 141.335 72.6538 119.563 75.9321 82.9228C73.9478 105.1 60.4115 135.005 46.7645 147.641ZM73.0394 244.188L80.03 241.055C81.1549 237.037 83.4048 228.568 83.4048 226.832C83.4048 224.663 80.03 239.608 77.6195 239.367C75.2089 239.126 73.2805 242.742 69.4236 241.055L73.0394 244.188ZM78.8248 105.1C78.3426 120.527 77.0892 152.395 75.9321 156.444C77.8605 144.552 81.1389 117.635 78.8248 105.1ZM88.2259 151.382C90.315 156.846 92.8059 170.377 86.0564 180.791C88.3866 174.122 92.0828 158.903 88.2259 151.382ZM46.7645 224.422C50.3 225.627 58.769 225.145 64.3615 213.574C61.0671 218.074 52.9355 226.543 46.7645 224.422ZM73.0394 217.19C77.6195 208.753 87.0688 190.771 88.2259 186.335C83.1637 195.495 73.0394 214.49 73.0394 217.19ZM48.934 186.335C47.8894 182.237 43.4379 174.427 33.9886 175.97C37.3634 176.05 45.0771 178.236 48.934 186.335ZM43.8718 195.254C43.3094 189.871 39.2918 177.705 27.7212 172.113C31.8995 175.166 40.9792 184.069 43.8718 195.254ZM27.7212 191.397C31.7387 180.711 32.0119 156.203 0.964111 143.669V146.32C11.5705 149.534 31.7709 163.049 27.7212 191.397ZM77.8605 94.9755C76.8872 89.4312 77.8605 84.8512 75.9321 79.548C73.8529 73.8303 78.7444 71.2718 80.9942 70.87C77.8605 70.87 71.7344 74.1059 74.7268 81.4764C76.3906 85.5744 77.8291 94.3327 77.8605 94.9755Z" stroke="#22007C"/>
<path d="M61.2279 146.32C63.1563 147.284 69.0621 151.864 68.9416 158.734C68.58 155.882 66.5311 149.406 61.2279 146.32Z" fill="#22007C"/>
<path d="M49.2957 207.548C53.2329 209.235 62.2644 209.235 66.8926 195.736C64.5223 201.039 57.6844 210.826 49.2957 207.548Z" fill="#22007C"/>
<path d="M99.6761 112.331L102.087 136.075M61.2279 146.32C63.1563 147.284 69.0621 151.864 68.9416 158.734C68.58 155.882 66.5311 149.406 61.2279 146.32ZM49.2957 207.548C53.2329 209.235 62.2644 209.235 66.8926 195.736C64.5223 201.039 57.6844 210.826 49.2957 207.548Z" stroke="#22007C"/>
<path d="M100.158 61.951C100.899 65.6941 102.858 73.5469 104.912 75.8577C104.977 75.9273 105.039 75.9923 105.1 76.0527C105.037 75.993 104.975 75.9279 104.912 75.8577C103.215 74.0269 100.158 69.0105 100.158 61.951Z" fill="#22007C"/>
<path d="M101.363 77.1374C104.457 77.6597 111.174 80.9461 113.295 89.9133C112.251 86.6591 108.402 79.548 101.363 77.1374Z" fill="#22007C"/>
<path d="M102.689 102.207C102.689 101.484 104.256 90.2749 107.149 87.5028C105.662 88.467 102.689 92.7578 102.689 102.207Z" fill="#22007C"/>
<path d="M96.6627 53.6346L91.9622 40.3766M100.158 61.951C100.921 65.8078 102.978 74.0278 105.1 76.0527C103.452 74.4055 100.158 69.279 100.158 61.951ZM101.363 77.1374C104.457 77.6597 111.174 80.9461 113.295 89.9133C112.251 86.6591 108.402 79.548 101.363 77.1374ZM102.689 102.207C102.689 101.484 104.256 90.2749 107.149 87.5028C105.662 88.467 102.689 92.7578 102.689 102.207Z" stroke="#22007C"/>
</svg>
