<svg width="80" height="80" viewBox="0 0 80 80" fill="none" xmlns="http://www.w3.org/2000/svg">
<rect width="80" height="80" rx="8" fill="white"/>
<rect x="10" y="10" width="60" height="60" rx="13" fill="#707EFF"/>
<path d="M17.8322 44.7666C16.5458 40.7122 18.9598 36.4159 23.0917 35.4059C28.6853 34.0386 33.4487 39.3115 32.09 44.9073C30.8164 50.1524 30.7753 53.5668 32.1842 57.327C33.5941 61.0898 30.9651 65.4688 26.9866 64.9044C25.2166 64.6533 23.7471 63.41 23.2065 61.7059L17.8322 44.7666Z" fill="#B6B2ED"/>
<path d="M62.1678 44.312C63.4542 40.2577 61.0402 35.9613 56.9083 34.9513C51.3147 33.584 46.5513 38.857 47.91 44.4527C49.1836 49.6979 49.2247 53.1123 47.8158 56.8724C46.4059 60.6353 49.0349 65.0143 53.0134 64.4499C54.7834 64.1988 56.2529 62.9554 56.7935 61.2514L62.1678 44.312Z" fill="#B6B2ED"/>
<path d="M23.5368 20.5941C23.0706 19.7281 23.2968 18.6426 24.1397 18.136C32.0381 13.3889 46.9141 13.1042 55.7702 18.1428C56.6519 18.6445 56.9102 19.7641 56.4293 20.6573L51.7423 29.3616C51.2658 30.2466 50.2065 30.6352 49.2575 30.3038C42.3983 27.9085 37.8517 27.9145 30.7278 30.3292C29.7847 30.6489 28.7401 30.2574 28.268 29.3807L23.5368 20.5941Z" fill="#B6B2ED"/>
<mask id="mask0_798_2493" style="mask-type:alpha" maskUnits="userSpaceOnUse" x="23" y="14" width="34" height="17">
<path d="M23.5368 20.5941C23.0706 19.7281 23.2968 18.6426 24.1397 18.136C32.0381 13.3889 46.9141 13.1042 55.7702 18.1428C56.6519 18.6445 56.9102 19.7641 56.4293 20.6573L51.7423 29.3616C51.2658 30.2466 50.2065 30.6352 49.2575 30.3038C42.3983 27.9085 37.8517 27.9145 30.7278 30.3292C29.7847 30.6489 28.7401 30.2574 28.268 29.3807L23.5368 20.5941Z" fill="#C6CADD"/>
</mask>
<g mask="url(#mask0_798_2493)">
<rect x="39.0909" y="18.1818" width="1.81818" height="11.8182" rx="0.909091" fill="#22007C"/>
</g>
</svg>
