<svg width="24" height="24" viewBox="0 0 24 24" fill="none" xmlns="http://www.w3.org/2000/svg">
<path d="M21.3125 14.7778C21.3125 16.3119 20.0533 17.5556 18.5 17.5556C16.9467 17.5556 15.6875 16.3119 15.6875 14.7778C15.6875 13.2437 16.9467 12 18.5 12C20.0533 12 21.3125 13.2437 21.3125 14.7778Z" fill="#C6CADD"/>
<path d="M19.5 22C19.5 19.5454 18 18.1111 18.5 18.1111C20.9853 18.1111 23 19.5454 23 22H19.5Z" fill="#C6CADD"/>
<path d="M8.3125 14.7778C8.3125 16.3119 7.0533 17.5556 5.5 17.5556C3.9467 17.5556 2.6875 16.3119 2.6875 14.7778C2.6875 13.2437 3.9467 12 5.5 12C7.0533 12 8.3125 13.2437 8.3125 14.7778Z" fill="#C6CADD"/>
<path d="M1 22C1 19.5454 3.01472 18.1111 5.5 18.1111C6 18.1111 4.5 19.5454 4.5 22H1Z" fill="#C6CADD"/>
<path d="M16.375 10.4444C16.375 12.899 14.4162 14.8889 12 14.8889C9.58375 14.8889 7.625 12.899 7.625 10.4444C7.625 7.98985 9.58375 6 12 6C14.4162 6 16.375 7.98985 16.375 10.4444Z" fill="#C6CADD"/>
<path d="M5 22C5 18.0726 8.13401 15.7778 12 15.7778C15.866 15.7778 19 18.0726 19 22H5Z" fill="#C6CADD"/>
</svg>
