<svg width="24" height="24" viewBox="0 0 24 24" fill="none" xmlns="http://www.w3.org/2000/svg">
<path d="M6.71014 8.26279C6.45192 8.00457 7.11314 7.62733 7.37136 7.3691C7.62958 7.11088 7.77436 6.44966 8.03258 6.70788L17.5412 16.1365C17.7995 16.3947 17.5479 17.0292 17.2897 17.2874C17.0314 17.5456 16.3968 17.7973 16.1386 17.5391L6.71014 8.26279Z" fill="#C6CADD"/>
<path d="M19.2621 13.1742C19.6494 12.7868 20.2774 12.7868 20.6647 13.1742C21.0521 13.5615 21.0521 14.1895 20.6647 14.5768L14.5865 20.655C14.1992 21.0424 13.5712 21.0424 13.1839 20.655C12.7965 20.2677 12.7965 19.6397 13.1839 19.2524L19.2621 13.1742Z" fill="#C6CADD"/>
<path d="M9.4232 3.33523C9.81053 2.94789 10.4385 2.94789 10.8259 3.33523C11.2132 3.72256 11.2132 4.35055 10.8259 4.73789L4.74767 10.8161C4.36034 11.2034 3.73234 11.2034 3.34501 10.8161C2.95768 10.4287 2.95768 9.80076 3.34501 9.41342L9.4232 3.33523Z" fill="#C6CADD"/>
<path d="M20.0755 15.6313C20.4629 15.244 21.0909 15.244 21.4782 15.6313C21.8655 16.0186 21.8655 16.6466 21.4782 17.034L17.2702 21.2419C16.8829 21.6293 16.2549 21.6293 15.8676 21.2419C15.4802 20.8546 15.4802 20.2266 15.8676 19.8393L20.0755 15.6313Z" fill="#C6CADD"/>
<path d="M7.00356 2.5615C7.39089 2.17417 8.01888 2.17417 8.40621 2.5615C8.79355 2.94883 8.79355 3.57683 8.40621 3.96416L4.19824 8.17214C3.81091 8.55947 3.18291 8.55947 2.79558 8.17214C2.40825 7.78481 2.40825 7.15681 2.79558 6.76948L7.00356 2.5615Z" fill="#C6CADD"/>
</svg>
